# xmcd
#
# Track frame offsets: 
#        150
#        25233
#        40228
#        60971
#        78726
#        94100
#        112165
#        127614
#        144237
#        162734
#        184059
#        199025
#        215463
#        231613
#        248902
#        260766
#        271683
#        294039
#
# Disc length: 4231 seconds
#
# Revision: 1
# Processed by: cddbd v1.5.2PL0 Copyright (c) Steve Scherf et al.
# Submitted via: ExactAudioCopy v1.0b3
#
DISCID=02108512
DTITLE=Phyllis Nelson - Move Closer
DYEAR=2009
DGENRE=Soul
TTITLE0=Don't Stop The Train [Radio Mix]
TTITLE1=Stop, Don't Do This To Me
TTITLE2=Move Closer
TTITLE3=I Don't Know [Feat. Alain Delon]
TTITLE4=I Like You [Radio Mix]
TTITLE5=Somewhere In The City
TTITLE6=In A Cadillac
TTITLE7=Take Me Nowhere
TTITLE8=Happy To See You
TTITLE9=It's Tonight
TTITLE10=Reachin'
TTITLE11=Then Came You
TTITLE12=Land Of Make Believe
TTITLE13=Make Believe That We're 16
TTITLE14=Explosive Combination
TTITLE15=Afraid I'm Gonna Fall [Previously Unreleased Demo]
TTITLE16=Don't Stop The Train [Disco Mix]
TTITLE17=I Like You [Extended Version]
EXTD=
EXTT0=
EXTT1=
EXTT2=
EXTT3=
EXTT4=
EXTT5=
EXTT6=
EXTT7=
EXTT8=
EXTT9=
EXTT10=
EXTT11=
EXTT12=
EXTT13=
EXTT14=
EXTT15=
EXTT16=
EXTT17=
PLAYORDER=
